<?xml version="1.0" standalone="no"?>
<!DOCTYPE svg PUBLIC "-//W3C//DTD SVG 20010904//EN"
 "http://www.w3.org/TR/2001/REC-SVG-20010904/DTD/svg10.dtd">
<svg version="1.0" xmlns="http://www.w3.org/2000/svg"
 width="700.000000pt" height="700.000000pt" viewBox="0 0 700.000000 700.000000"
 preserveAspectRatio="xMidYMid meet">
<metadata>
Created by potrace 1.11, written by Peter Selinger 2001-2013
</metadata>
<g transform="translate(0.000000,700.000000) scale(0.100000,-0.100000)"
fill="#000000" stroke="none">
<path d="M3390 6985 c-220 -37 -394 -111 -560 -238 -227 -175 -376 -436 -415
-725 -12 -84 -4 -309 11 -333 2 -4 6 -24 10 -45 30 -193 175 -441 353 -608 24
-23 49 -46 55 -52 34 -33 184 -127 257 -162 178 -84 329 -121 524 -128 l130
-5 -71 29 c-437 177 -735 554 -781 987 -11 103 -6 247 11 325 3 14 8 39 12 55
15 74 66 197 123 298 78 138 231 290 389 385 29 18 54 32 57 32 2 0 32 13 67
29 58 27 141 58 178 66 8 2 36 8 62 14 25 6 70 14 100 17 29 3 55 8 57 10 4 3
-91 31 -134 39 -16 2 -41 7 -55 11 -52 12 -307 11 -380 -1z"/>
<path d="M2589 6856 c-2 -2 -27 -7 -55 -10 -28 -3 -57 -8 -65 -10 -8 -3 -25
-7 -39 -10 -48 -8 -209 -65 -272 -97 -232 -116 -427 -306 -540 -524 -43 -84
-92 -219 -102 -283 -3 -15 -8 -47 -12 -72 -13 -76 -7 -264 11 -352 83 -407
377 -729 792 -867 80 -27 135 -39 248 -56 46 -7 248 -8 285 -1 14 2 48 7 75
11 28 4 75 13 105 21 30 9 62 17 70 19 16 3 173 65 178 69 1 2 -45 3 -103 4
-58 0 -118 3 -133 6 -15 3 -45 8 -67 11 -73 9 -229 57 -320 100 -348 161 -589
463 -659 827 -15 73 -15 319 -2 383 25 112 57 207 97 288 35 69 110 186 149
231 85 101 236 227 325 274 22 12 47 26 55 31 13 9 13 11 -1 11 -9 0 -18 -2
-20 -4z"/>
<path d="M4265 6784 c-127 -19 -238 -52 -335 -100 -43 -21 -151 -85 -166 -99
-6 -5 -40 -35 -76 -65 -437 -373 -492 -1054 -125 -1560 62 -86 224 -239 317
-302 80 -52 202 -118 246 -130 10 -3 28 -9 39 -14 11 -4 -11 23 -48 60 -165
163 -314 433 -343 621 -3 22 -8 43 -9 46 -16 24 -23 228 -12 334 28 275 164
535 371 711 202 171 447 262 712 266 138 1 250 -13 357 -46 43 -13 47 -13 36
1 -23 27 -133 100 -219 146 -96 51 -229 98 -340 122 -95 21 -301 25 -405 9z"/>
<path d="M5045 6270 c-22 -4 -58 -10 -80 -13 -101 -14 -285 -92 -398 -169
-136 -93 -282 -260 -358 -409 -40 -81 -93 -229 -103 -289 -3 -19 -10 -57 -15
-83 -13 -74 -11 -293 6 -388 31 -185 125 -402 237 -553 60 -79 164 -192 171
-184 3 2 -4 23 -15 45 -28 59 -67 182 -87 276 -22 103 -24 362 -4 457 38 182
119 371 211 492 169 223 415 373 690 422 81 14 286 15 367 2 166 -28 352 -107
494 -208 105 -75 104 -75 75 -29 -14 22 -26 43 -26 46 0 3 -26 40 -57 83 -188
255 -448 424 -748 487 -87 18 -296 27 -360 15z"/>
<path d="M1360 6243 c-167 -108 -222 -152 -313 -250 -120 -129 -207 -274 -260
-433 -53 -159 -65 -239 -61 -398 10 -482 323 -885 795 -1025 120 -36 217 -50
354 -50 326 0 637 126 877 354 l83 78 -89 -34 c-98 -38 -206 -70 -276 -80 -25
-4 -54 -9 -65 -11 -11 -3 -76 -5 -145 -5 -399 -2 -752 179 -967 497 -186 273
-232 643 -121 968 36 105 134 295 169 326 3 3 18 22 33 43 30 40 26 46 -14 20z"/>
<path d="M5648 5505 c-2 -1 -32 -5 -68 -8 -282 -26 -552 -178 -753 -422 -74
-91 -150 -230 -196 -361 -99 -283 -86 -665 32 -924 l25 -55 2 85 c2 104 6 146
21 230 84 464 412 829 847 946 155 42 373 42 547 0 109 -26 261 -100 376 -182
127 -92 276 -262 343 -392 10 -19 20 -32 22 -29 11 10 -31 208 -63 302 -163
472 -578 792 -1049 809 -46 2 -85 2 -86 1z"/>
<path d="M462 5198 c-70 -96 -82 -116 -122 -194 -48 -95 -91 -219 -115 -334
-19 -90 -27 -318 -14 -380 4 -19 10 -55 14 -79 3 -24 19 -83 35 -131 131 -402
468 -684 890 -746 77 -11 240 -10 327 3 433 63 809 358 986 771 15 35 27 66
27 69 0 3 -38 -31 -85 -75 -163 -155 -359 -263 -570 -316 -89 -22 -119 -26
-240 -32 -414 -22 -806 196 -1010 561 -51 90 -102 234 -119 330 -14 85 -18
126 -18 212 -1 122 7 190 36 304 12 49 21 89 19 89 -1 0 -20 -24 -41 -52z"/>
<path d="M5837 4594 c-1 -1 -31 -4 -67 -8 -387 -34 -762 -301 -947 -672 -48
-94 -94 -227 -110 -313 -2 -14 -6 -27 -8 -30 -11 -18 -26 -277 -17 -299 2 -8
12 8 22 35 56 159 153 306 290 443 239 239 506 353 825 353 301 0 586 -125
790 -345 105 -114 198 -268 247 -408 25 -73 57 -217 60 -274 2 -24 6 -42 9
-38 8 8 46 177 54 237 11 79 6 265 -10 355 -85 487 -423 848 -885 943 -36 7
-92 15 -125 16 -33 1 -75 3 -93 5 -18 1 -34 1 -35 0z"/>
<path d="M47 3917 c-8 -28 -19 -70 -22 -92 -3 -22 -10 -62 -14 -89 -13 -76 -5
-312 13 -396 52 -243 160 -446 325 -611 123 -121 274 -214 434 -264 81 -26 97
-29 199 -44 58 -9 229 -7 288 3 393 64 721 308 904 673 33 68 91 225 100 273
2 14 9 45 15 70 12 49 27 310 18 310 -3 0 -11 -17 -18 -37 -20 -64 -95 -208
-150 -290 -62 -92 -207 -239 -301 -306 -131 -93 -305 -167 -463 -198 -89 -18
-332 -18 -405 0 -242 58 -402 144 -560 301 -183 181 -309 440 -335 685 -4 33
-8 61 -9 62 -1 2 -10 -21 -19 -50z"/>
<path d="M5517 3669 c-351 -52 -672 -259 -874 -564 -47 -72 -95 -164 -122
-236 l-21 -53 72 69 c40 39 75 73 78 76 43 45 227 157 330 199 560 232 1178
19 1442 -495 37 -74 85 -192 80 -202 0 -2 4 -17 9 -35 23 -77 36 -201 34 -324
-1 -72 -4 -135 -7 -140 -3 -5 -9 -30 -12 -55 -3 -26 -13 -68 -21 -95 -8 -26
-13 -50 -11 -51 12 -12 132 173 180 278 208 452 136 958 -186 1301 -144 152
-335 261 -555 314 -78 19 -325 27 -416 13z"/>
<path d="M2302 3180 c-2 -245 -56 -441 -180 -650 -263 -440 -774 -650 -1251
-514 -293 84 -537 285 -717 590 -9 14 -9 4 -3 -44 67 -488 400 -889 844 -1017
125 -36 191 -44 330 -40 173 4 283 30 440 104 125 58 199 113 315 230 194 198
306 430 345 716 7 55 7 260 -1 315 -14 111 -69 304 -107 375 -14 28 -15 25
-15 -65z"/>
<path d="M4895 2899 c-193 -37 -382 -119 -529 -229 -81 -60 -200 -170 -192
-177 2 -3 21 4 43 15 119 60 307 102 478 107 175 5 271 -8 418 -56 294 -96
525 -293 660 -564 110 -221 139 -481 81 -731 -17 -73 -63 -204 -95 -266 -22
-45 -111 -181 -151 -233 l-23 -30 40 24 c107 65 183 121 259 192 198 186 320
406 371 669 11 61 16 125 16 208 -1 482 -326 906 -801 1043 -128 37 -205 48
-355 47 -81 -1 -164 -8 -220 -19z"/>
<path d="M2501 2790 c63 -169 75 -209 104 -370 11 -57 8 -259 -5 -344 -54
-360 -271 -668 -590 -839 -213 -114 -516 -150 -755 -90 -169 42 -344 125 -460
218 -67 53 -68 50 -15 -36 82 -132 166 -228 292 -335 131 -111 356 -214 548
-251 66 -13 328 -10 395 4 345 72 620 282 771 588 47 97 88 207 100 270 2 11
6 30 8 42 34 167 27 367 -18 541 -60 229 -164 413 -338 596 l-58 61 21 -55z"/>
<path d="M2820 2494 c0 -3 24 -29 53 -57 194 -191 317 -429 365 -712 11 -66 7
-316 -7 -380 -95 -449 -420 -776 -866 -870 -95 -20 -292 -27 -390 -13 -61 8
-142 25 -210 45 -25 7 40 -46 114 -94 142 -92 336 -168 476 -188 23 -3 52 -8
65 -10 34 -7 225 -7 280 1 105 13 204 39 293 75 406 164 676 558 681 994 0
104 -8 227 -19 257 -2 7 -6 24 -9 38 -8 48 -65 209 -97 272 -113 226 -326 445
-549 564 -70 38 -180 85 -180 78z"/>
<path d="M4068 2420 c-98 -18 -262 -69 -308 -95 -23 -13 -19 -14 60 -16 300
-6 570 -100 784 -274 365 -298 508 -756 370 -1190 -42 -130 -124 -284 -199
-370 -121 -139 -193 -199 -365 -304 l-35 -21 55 6 c116 11 292 64 414 125 339
169 576 480 640 839 15 84 16 298 1 365 -29 138 -46 188 -108 312 -128 260
-382 476 -672 572 -55 18 -111 35 -125 38 -14 2 -45 9 -70 15 -80 19 -334 17
-442 -2z"/>
<path d="M3265 2310 c-2 -4 13 -12 34 -19 64 -19 224 -105 303 -163 75 -56
191 -166 240 -229 123 -157 210 -350 243 -539 29 -171 1 -445 -59 -575 -54
-117 -71 -148 -114 -213 -177 -266 -485 -448 -837 -496 -16 -3 -34 -5 -40 -6
-14 -2 39 -18 120 -34 228 -47 459 -34 660 35 175 61 365 180 468 294 10 11
31 34 46 50 100 111 205 324 235 480 4 17 9 41 11 55 10 48 13 246 5 300 -34
223 -101 386 -230 559 -204 272 -513 450 -860 496 -75 10 -220 13 -225 5z"/>
</g>
</svg>
