<svg xmlns="http://www.w3.org/2000/svg" viewBox="0 0 461 76">
  <g fill="none" fill-rule="evenodd">
    <path fill="#E2652A" d="M38.086 73.797c6.256-3.324 8.302-10.945 4.566-17.024-1.743-2.84-4.45-4.84-7.468-5.824 4.97-.34 10.035 2.05 12.77 6.49 3.732 6.08 1.685 13.69-4.572 17.01-3.33 1.76-7.188 1.96-10.63.84 1.826-.12 3.645-.62 5.334-1.51"/>
    <path fill="#E2652A" d="M51.763 71.025c4.51-5.46 3.486-13.28-2.293-17.47-2.7-1.957-5.968-2.77-9.127-2.526 4.46-2.22 10.055-1.94 14.28 1.12 5.777 4.18 6.797 12 2.287 17.47-2.408 2.91-5.89 4.56-9.507 4.84 1.65-.82 3.14-1.97 4.356-3.44"/>
    <path fill="#E2652A" d="M63.338 63.236c2.08-6.773-1.862-13.605-8.804-15.26-3.242-.775-6.568-.28-9.405 1.16 3.28-3.753 8.55-5.64 13.62-4.433 6.94 1.658 10.88 8.487 8.8 15.264-1.11 3.61-3.7 6.47-6.93 8.107 1.21-1.38 2.14-3.012 2.71-4.838"/>
    <path fill="#E2652A" d="M71.054 51.613c-.675-7.054-6.932-11.863-13.98-10.734-3.286.52-6.17 2.25-8.238 4.66 1.59-4.72 5.736-8.49 10.887-9.31 7.047-1.13 13.297 3.68 13.97 10.73.36 3.75-.93 7.39-3.288 10.14.585-1.75.826-3.61.65-5.51"/>
    <path fill="#E2652A" d="M73.73 37.92c-3.322-6.26-10.94-8.31-17.018-4.568-2.842 1.74-4.844 4.447-5.83 7.464-.336-4.966 2.056-10.032 6.5-12.767 6.08-3.74 13.697-1.69 17.015 4.57 1.77 3.33 1.958 7.18.832 10.63-.11-1.84-.61-3.66-1.5-5.34"/>
    <path fill="#E2652A" d="M70.96 24.24c-5.462-4.51-13.28-3.486-17.467 2.292-1.96 2.7-2.78 5.966-2.53 9.135-2.204-4.47-1.938-10.06 1.125-14.284 4.18-5.775 12.004-6.8 17.464-2.29 2.914 2.405 4.568 5.892 4.84 9.5-.81-1.64-1.96-3.135-3.432-4.352"/>
    <path fill="#E2652A" d="M63.17 12.666c-6.77-2.08-13.6 1.862-15.26 8.8-.773 3.247-.277 6.568 1.158 9.41-3.747-3.28-5.637-8.553-4.426-13.626 1.65-6.937 8.48-10.876 15.258-8.802 3.61 1.107 6.472 3.697 8.11 6.924-1.383-1.207-3.013-2.15-4.84-2.706"/>
    <path fill="#E2652A" d="M51.547 4.956c-7.058.666-11.86 6.92-10.734 13.966.524 3.297 2.258 6.182 4.675 8.248-4.723-1.59-8.49-5.74-9.308-10.89-1.13-7.045 3.678-13.3 10.735-13.973 3.75-.36 7.387.94 10.132 3.295-1.73-.588-3.603-.83-5.5-.646"/>
    <path fill="#E2652A" d="M37.85 2.276c-6.26 3.318-8.3 10.933-4.567 17.014 1.75 2.84 4.448 4.845 7.465 5.832-4.97.33-10.03-2.057-12.76-6.502-3.736-6.08-1.69-13.692 4.568-17.018C35.89-.164 39.748-.355 43.186.764c-1.825.127-3.65.623-5.335 1.512"/>
    <path fill="#E2652A" d="M24.178 5.043c-4.516 5.46-3.487 13.284 2.29 17.463 2.702 1.96 5.964 2.78 9.134 2.528-4.467 2.215-10.063 1.943-14.275-1.12-5.783-4.183-6.814-12.003-2.3-17.462 2.405-2.91 5.895-4.565 9.5-4.85-1.643.816-3.135 1.97-4.35 3.44"/>
    <path fill="#E2652A" d="M12.6 12.827c-2.08 6.78 1.858 13.61 8.798 15.263 3.25.778 6.574.282 9.413-1.158-3.28 3.752-8.55 5.647-13.62 4.43-6.94-1.656-10.88-8.487-8.8-15.26 1.11-3.605 3.7-6.47 6.93-8.11-1.2 1.383-2.15 3.018-2.71 4.835"/>
    <path fill="#E2652A" d="M4.883 24.46c.675 7.048 6.93 11.857 13.977 10.73 3.29-.527 6.178-2.256 8.242-4.672-1.59 4.72-5.74 8.484-10.888 9.31-7.04 1.127-13.3-3.685-13.972-10.734-.358-3.758.94-7.388 3.294-10.144-.59 1.744-.83 3.605-.653 5.51"/>
    <path fill="#E2652A" d="M2.213 38.15c3.312 6.26 10.934 8.303 17.01 4.573 2.845-1.752 4.846-4.457 5.832-7.474.33 4.97-2.053 10.03-6.498 12.77C12.48 51.75 4.863 49.7 1.54 43.44-.235 40.112-.424 36.26.703 32.817c.12 1.826.608 3.65 1.51 5.332"/>
    <path fill="#E2652A" d="M4.974 51.826c5.465 4.514 13.285 3.487 17.47-2.29 1.96-2.698 2.77-5.966 2.53-9.136 2.203 4.473 1.94 10.06-1.122 14.286-4.187 5.775-12.002 6.798-17.47 2.287-2.907-2.4-4.562-5.89-4.84-9.494.81 1.64 1.962 3.13 3.432 4.34"/>
    <path fill="#E2652A" d="M12.763 63.4c6.777 2.082 13.608-1.86 15.263-8.795.775-3.252.28-6.574-1.16-9.412 3.75 3.282 5.646 8.555 4.433 13.622-1.66 6.943-8.5 10.885-15.27 8.805-3.61-1.11-6.48-3.69-8.12-6.92 1.38 1.21 3.02 2.146 4.84 2.706"/>
    <path fill="#E2652A" d="M24.393 71.115c7.052-.67 11.858-6.928 10.73-13.968-.526-3.295-2.255-6.182-4.668-8.25 4.718 1.603 8.482 5.746 9.307 10.89 1.125 7.05-3.684 13.307-10.73 13.975-3.76.355-7.395-.94-10.146-3.295 1.74.588 3.613.83 5.507.648"/>
    <path fill="#FFF" d="M85.21 53.828h5.952V29.973H85.21v23.855zm-.09-27.93h6.09v-4.854h-6.09V25.9zm29.684 27.93v-15.25c0-2.607-.505-4.85-2.427-6.775-1.33-1.33-3.252-2.105-5.633-2.105-2.198 0-4.396.824-5.952 2.474v-2.2h-5.815V53.83h5.952V39.405c0-3.252 2.1-4.352 3.98-4.352s3.94 1.1 3.94 4.352v14.423h5.95zm22.557-23.855h-6.27l-4.81 14.742-4.85-14.742h-6.27l8.79 23.855h4.67l8.75-23.855zm20.23 13.78V41.1c0-6.55-3.75-11.4-10.39-11.4-6.18 0-10.39 4.394-10.39 12.18 0 9.657 5.41 12.222 11.04 12.222 4.31 0 6.64-1.33 9.07-3.754l-3.61-3.526c-1.51 1.514-2.79 2.246-5.4 2.246-3.34 0-5.22-2.246-5.22-5.312h14.92zm-5.86-4.073h-9.06c.05-1.057.18-1.693.55-2.564.64-1.42 1.97-2.475 3.99-2.475s3.34 1.06 3.98 2.48c.37.87.51 1.51.55 2.57zm27.12 6.64c0-4.033-2.38-6.55-7.09-7.007l-3.76-.367c-2.1-.184-2.47-1.192-2.47-2.06 0-1.19 1.01-2.29 3.39-2.29 2.07 0 4.17.367 5.54 1.602l3.67-3.71c-2.29-2.15-5.4-2.79-9.11-2.79-4.85 0-9.2 2.652-9.2 7.6 0 4.395 2.66 6.27 6.96 6.686l3.75.368c1.88.177 2.52 1.004 2.52 2.193 0 1.79-2.15 2.473-4.21 2.473-1.83 0-4.39-.272-6.36-2.24l-3.89 3.888c3.02 3.024 6.41 3.434 10.17 3.434 5.63 0 10.12-2.516 10.12-7.78zm14.48 7.508v-5.04h-2.15c-1.42 0-2.06-.778-2.06-2.15V35.19h4.21v-4.53h-4.21v-7.052h-5.95v7.05h-2.51v4.532h2.52v11.812c0 3.392 2.06 6.826 6.92 6.826h3.25zm37.4 0v-15.25c0-2.607-.69-4.85-2.61-6.775-1.33-1.33-3.48-2.105-5.86-2.105-2.97 0-5.13.916-7.14 3.02-1.51-2.06-3.66-3.02-6.31-3.02-2.2 0-4.39.87-5.95 2.474v-2.2h-5.81V53.83H203V39.405c0-3.252 2.11-4.352 3.987-4.352 1.877 0 3.938 1.1 3.938 4.352v14.423h5.956V39.264c0-3.11 2.16-4.21 3.99-4.21 1.88 0 3.94 1.1 3.94 4.35V53.83h5.96zm22.61-23.855h-6.27l-4.76 14.742-4.94-14.742h-6.27l8.16 22.16-1.01 2.932c-.6 1.738-1.28 2.15-2.98 2.15h-1.37v5.357h2.34c1.97 0 3.76-.457 5.13-1.834.73-.73 1.28-1.738 1.79-3.066l10.21-27.7zm19.04 16.347c0-4.033-2.38-6.55-7.09-7.007l-3.75-.367c-2.1-.184-2.47-1.192-2.47-2.06 0-1.19 1.01-2.29 3.39-2.29 2.06 0 4.17.367 5.54 1.602l3.67-3.71c-2.29-2.15-5.41-2.79-9.12-2.79-4.85 0-9.2 2.652-9.2 7.6 0 4.395 2.66 6.27 6.96 6.686l3.75.368c1.88.177 2.52 1.004 2.52 2.193 0 1.79-2.15 2.473-4.21 2.473-1.83 0-4.4-.272-6.36-2.24l-3.89 3.888c3.02 3.023 6.41 3.434 10.17 3.434 5.63 0 10.12-2.516 10.12-7.78zm20.06 4.532l-4.03-3.982c-1.24 1.32-2.29 1.87-3.85 1.87-1.42 0-2.52-.51-3.39-1.56-.91-1.15-1.32-2.798-1.32-5.315 0-2.52.41-4.123 1.32-5.265.87-1.055 1.97-1.56 3.39-1.56 1.56 0 2.61.55 3.85 1.88l4.03-4.03c-2.1-2.196-4.58-3.204-7.87-3.204-4.76 0-10.67 2.52-10.67 12.18s5.9 12.224 10.66 12.224c3.3 0 5.77-1.05 7.88-3.247zm21.68 2.976v-15.43c0-5.04-2.75-8.7-7.97-8.7-2.11 0-4.12.824-5.73 2.474V21.227h-5.95v32.6h5.96V39.265c0-3.11 1.97-4.21 3.85-4.21s3.9 1.054 3.9 4.21V53.83h5.95zm22.92-11.95c0-4.307-.55-7.008-2.7-9.253-1.46-1.554-3.89-2.927-7.41-2.927s-5.91 1.373-7.37 2.927c-2.15 2.245-2.7 4.946-2.7 9.252 0 4.348.55 7.05 2.7 9.295 1.46 1.557 3.85 2.928 7.37 2.928s5.95-1.37 7.42-2.928c2.15-2.244 2.7-4.947 2.7-9.295zm-5.95 0c0 2.474-.14 4.575-1.37 5.813-.69.69-1.61 1.06-2.8 1.06s-2.06-.36-2.74-1.05c-1.24-1.23-1.37-3.34-1.37-5.81 0-2.47.14-4.53 1.37-5.77.69-.68 1.56-1.05 2.75-1.05s2.11.37 2.79 1.06c1.24 1.24 1.37 3.3 1.37 5.77zm28.2 0c0-4.307-.54-7.008-2.7-9.253-1.46-1.554-3.89-2.927-7.41-2.927s-5.91 1.373-7.37 2.927c-2.15 2.245-2.7 4.946-2.7 9.252 0 4.348.55 7.05 2.7 9.295 1.47 1.557 3.85 2.928 7.38 2.928s5.95-1.37 7.42-2.928c2.15-2.244 2.7-4.947 2.7-9.295zm-5.95 0c0 2.474-.14 4.575-1.37 5.813-.69.69-1.61 1.06-2.8 1.06-1.19 0-2.06-.36-2.74-1.05-1.24-1.23-1.38-3.34-1.38-5.81 0-2.47.14-4.53 1.38-5.77.69-.68 1.56-1.05 2.75-1.05s2.11.37 2.8 1.06c1.24 1.24 1.37 3.3 1.37 5.77zm19.05 11.95v-5.04h-2.29c-1.51 0-2.11-.73-2.11-2.15V21.23h-5.95V47c0 3.392 2.06 6.826 6.96 6.826h3.39zm2.9 0h6.82V47.05h-6.82v6.778zm27.58-2.976l-4.02-3.983c-1.23 1.32-2.29 1.87-3.84 1.87-1.42 0-2.52-.51-3.39-1.56-.91-1.15-1.33-2.8-1.33-5.32 0-2.52.42-4.13 1.33-5.27.87-1.06 1.97-1.56 3.39-1.56 1.56 0 2.61.55 3.85 1.88l4.03-4.03c-2.1-2.2-4.58-3.21-7.87-3.21-4.76 0-10.67 2.52-10.67 12.18s5.91 12.22 10.67 12.22c3.3 0 5.77-1.05 7.88-3.25zm20.82-8.975c0-4.306-.55-7.007-2.7-9.252-1.46-1.554-3.89-2.927-7.41-2.927s-5.9 1.373-7.37 2.927c-2.15 2.245-2.7 4.946-2.7 9.252 0 4.348.55 7.05 2.7 9.295 1.47 1.557 3.85 2.928 7.37 2.928s5.96-1.37 7.42-2.928c2.15-2.244 2.7-4.947 2.7-9.295zm-5.95 0c0 2.475-.13 4.576-1.37 5.814-.69.69-1.6 1.06-2.8 1.06-1.19 0-2.06-.36-2.74-1.05-1.23-1.23-1.37-3.34-1.37-5.81 0-2.47.14-4.53 1.38-5.77.69-.68 1.56-1.05 2.75-1.05s2.11.37 2.8 1.06c1.24 1.24 1.37 3.3 1.37 5.77zm42.65 11.95V38.58c0-2.61-.68-4.853-2.61-6.777-1.32-1.33-3.48-2.105-5.86-2.105-2.97 0-5.12.916-7.14 3.02-1.51-2.06-3.66-3.02-6.32-3.02-2.19 0-4.39.87-5.95 2.474v-2.2h-5.81V53.83h5.96V39.405c0-3.252 2.11-4.352 3.98-4.352s3.94 1.1 3.94 4.352v14.423h5.95V39.264c0-3.11 2.15-4.21 3.99-4.21 1.88 0 3.94 1.1 3.94 4.35V53.83h5.96z"/>
    <path fill="#E2642A" d="M303.712 71.574h1.478v-4.537h3.707v-1.463h-3.707V63.23h3.707v-1.457h-5.185v9.8m21.93-3.177l-5.666-6.53-.084-.093h-.602v9.8h1.505v-6.54l5.62 6.445.083.096h.61v-9.8h-1.466v6.622m-67.632.557c-.827.96-1.822 1.426-3.04 1.426-1.096 0-2.015-.36-2.733-1.06-.714-.69-1.075-1.58-1.075-2.62 0-.7.162-1.33.483-1.88.324-.56.767-1 1.358-1.33.58-.33 1.222-.5 1.91-.5.64 0 1.208.12 1.74.38.517.24.97.62 1.35 1.11l.168.21 1.16-.89-.15-.22c-.47-.65-1.08-1.16-1.81-1.52-.72-.36-1.55-.54-2.46-.54-1.5 0-2.76.49-3.76 1.46-.99.97-1.5 2.19-1.5 3.61 0 1.35.42 2.52 1.24 3.47.99 1.14 2.35 1.71 4.04 1.71.88 0 1.7-.17 2.43-.51.73-.34 1.35-.83 1.83-1.44l.18-.22-1.16-.88-.17.19m57.62-1.32c0 .88-.04 1.23-.08 1.37-.08.29-.2.53-.36.73-.16.2-.37.35-.61.46-.52.24-1.12.22-1.69-.05-.3-.15-.52-.32-.66-.53-.14-.21-.23-.47-.27-.8-.01-.1-.03-.39-.03-1.19v-5.86h-1.47v5.86c0 .98.06 1.64.18 2.03.2.64.6 1.17 1.18 1.56.58.38 1.28.58 2.07.58.75 0 1.39-.21 1.93-.63.53-.41.89-.91 1.06-1.47.17-.54.26-1.22.26-2.08v-5.86h-1.48v5.86m-26.73.22l-2.39-6.08H286l-2.42 6.08-1.72-6.08h-1.52l2.77 9.8h.57l2.61-6.52 2.555 6.52h.57l2.82-9.8h-1.52l-1.755 6.08m-11.28-1.19c0 .69-.16 1.33-.47 1.88-.32.56-.76 1-1.33 1.32-.57.32-1.193.48-1.854.48-1.01 0-1.84-.35-2.56-1.06-.71-.71-1.06-1.56-1.06-2.59 0-.69.16-1.33.48-1.89.317-.56.767-1.01 1.338-1.34.57-.33 1.17-.5 1.81-.5.65 0 1.257.16 1.84.5.57.33 1.02.77 1.34 1.32.31.54.47 1.17.47 1.85zm-3.7-5.12c-.91 0-1.77.23-2.545.68-.78.45-1.4 1.09-1.86 1.88-.45.8-.68 1.68-.68 2.61 0 1.4.51 2.61 1.5 3.6.99.99 2.23 1.49 3.67 1.49 1.42 0 2.65-.51 3.64-1.5.99-1 1.49-2.22 1.49-3.64 0-1.44-.5-2.66-1.5-3.65-.99-.99-2.24-1.49-3.71-1.49zm21.21 1.69h.375c1.29 0 2.22.08 2.78.26.703.2 1.26.6 1.653 1.18.4.58.6 1.3.6 2.13 0 .79-.186 1.46-.55 2-.365.54-.854.9-1.498 1.11-.47.15-1.33.23-2.57.23h-.8v-6.9zm3.854-1.1c-.66-.23-1.7-.35-3.1-.35h-2.2v9.8h3.21c1.19 0 2.14-.18 2.82-.54.69-.37 1.25-.93 1.67-1.67.42-.74.634-1.61.634-2.58 0-1.12-.27-2.11-.8-2.93-.53-.82-1.29-1.41-2.24-1.74zm31.71 1.11h.375c1.29 0 2.23.08 2.78.26.71.2 1.26.6 1.66 1.18.4.58.6 1.3.6 2.13 0 .79-.18 1.46-.55 2-.36.54-.84.9-1.49 1.11-.47.15-1.34.23-2.58.23h-.79v-6.9zm3.855-1.11c-.65-.23-1.69-.35-3.1-.35h-2.19v9.8h3.22c1.19 0 2.14-.18 2.82-.54.69-.36 1.25-.92 1.67-1.67.42-.74.64-1.61.64-2.58 0-1.13-.27-2.11-.8-2.93-.54-.82-1.29-1.41-2.24-1.74zm-70.72 3.71l-1.31-.01V63.2h1.35c.74 0 1.09.08 1.26.145.22.086.4.234.53.44.14.204.21.44.21.69 0 .266-.07.503-.21.72-.13.21-.31.353-.56.453-.25.1-.68.153-1.26.153zm2.01 1.12c.49-.22.87-.55 1.13-.98.26-.43.4-.92.4-1.48 0-.67-.2-1.24-.58-1.7-.39-.47-.89-.77-1.49-.9-.39-.09-1.09-.14-2.15-.14h-2.12v9.8h1.48v-4.29h.11l3.24 4.18.08.11h1.84l-3.34-4.32c.56-.04 1.02-.14 1.38-.3zm73.32 4.61h1.48v-9.8h-1.48m74.57 7.18c-.82.95-1.82 1.42-3.04 1.42-1.1 0-2.02-.36-2.74-1.06-.72-.7-1.08-1.58-1.08-2.62 0-.7.16-1.33.48-1.88.32-.55.78-1 1.36-1.33 1.12-.63 2.57-.64 3.65-.11.52.25.97.61 1.35 1.11l.16.22 1.16-.89-.15-.22c-.47-.65-1.07-1.16-1.81-1.52-.73-.36-1.56-.54-2.46-.54-1.5 0-2.77.49-3.76 1.46-1 .97-1.51 2.19-1.51 3.61 0 1.35.42 2.52 1.24 3.47.983 1.13 2.342 1.71 4.033 1.71.88 0 1.696-.17 2.427-.51.72-.34 1.34-.828 1.82-1.44l.18-.22-1.16-.888-.17.2M446 66.62c0 .69-.16 1.324-.474 1.88-.312.558-.76 1.003-1.32 1.323-.577.32-1.2.483-1.86.483-1.005 0-1.84-.34-2.56-1.05-.713-.71-1.06-1.557-1.06-2.586 0-.69.16-1.322.48-1.88.326-.57.762-1.01 1.335-1.34.58-.333 1.17-.5 1.81-.5.65 0 1.27.17 1.84.5.58.33 1.03.78 1.35 1.32.32.55.48 1.17.48 1.857zm-3.7-5.12c-.91 0-1.77.23-2.545.68-.783.456-1.41 1.087-1.86 1.88-.45.8-.68 1.677-.68 2.613 0 1.4.505 2.61 1.497 3.6.99.985 2.22 1.49 3.66 1.49 1.428 0 2.65-.507 3.64-1.5.99-1 1.497-2.22 1.497-3.64 0-1.43-.5-2.66-1.5-3.65-.99-.987-2.24-1.48-3.71-1.48zm-19.94 4.108h-4.15v-3.88h-1.48v9.8h1.47V67.1h4.153v4.464h1.475v-9.8h-1.48v3.88m12 1.01c0 .69-.16 1.32-.48 1.88-.317.56-.76 1.005-1.32 1.325-.58.32-1.2.48-1.86.48-.997 0-1.86-.36-2.56-1.06-.718-.71-1.06-1.56-1.06-2.59 0-.69.16-1.32.48-1.88.32-.56.763-1.01 1.333-1.34.56-.33 1.17-.5 1.8-.5.66 0 1.26.16 1.84.5.58.32 1.03.77 1.34 1.32.32.55.48 1.17.48 1.85zm-3.7-5.12c-.918 0-1.777.23-2.55.68-.773.45-1.4 1.085-1.86 1.88-.45.806-.68 1.685-.68 2.615 0 1.4.5 2.61 1.5 3.6.99.99 2.226 1.49 3.665 1.49 1.424 0 2.65-.51 3.64-1.5.99-.99 1.49-2.22 1.49-3.64 0-1.43-.5-2.66-1.494-3.64-1-.99-2.25-1.48-3.71-1.48zM349 68.396l-5.668-6.53-.084-.09h-.6v9.8h1.51v-6.54l5.616 6.444.084.095h.61v-9.8H349v6.622m101.683-6.623h-1.48v9.8h5.036V70.13h-3.56v-8.357m9.43 5.73c-.31-.49-.87-1.03-1.71-1.653-.67-.495-1.06-.795-1.16-.897-.2-.195-.34-.375-.41-.533-.07-.152-.1-.305-.1-.473 0-.254.09-.46.27-.635.32-.316.92-.36 1.38-.08.14.086.41.305.81.84l.16.223 1.19-.904-.16-.22c-.46-.62-.88-1.03-1.29-1.27-.8-.46-1.83-.47-2.63-.03-.4.22-.7.51-.92.89-.22.38-.33.8-.33 1.24 0 .57.18 1.1.54 1.58.21.29.69.72 1.5 1.32.74.57 1.25 1.05 1.52 1.43.17.26.26.5.26.75 0 .22-.06.44-.18.63-.12.2-.29.36-.51.48-.24.13-.48.19-.75.19-.62 0-1.17-.45-1.67-1.38l-.13-.25-1.27.76.13.24c.41.74.87 1.28 1.36 1.6.5.33 1.06.5 1.67.5.8 0 1.49-.28 2.05-.82.56-.54.84-1.2.84-1.94 0-.52-.17-1.03-.49-1.54m-91.82 4.07h1.48v-4.54h3.7V65.6h-3.71v-2.35h3.7v-1.46h-5.18v9.8m-10.21-3.538h2.89c-.15.64-.49 1.163-1.01 1.59-.61.5-1.35.74-2.24.74-.73 0-1.41-.17-2.03-.5-.61-.34-1.1-.8-1.44-1.38-.34-.58-.52-1.2-.52-1.84 0-.63.17-1.23.5-1.8.33-.57.81-1.02 1.42-1.35 1.11-.605 2.32-.685 3.62-.134.58.25 1.12.62 1.61 1.1l.2.19 1.12-1.065-.21-.2c-.68-.64-1.39-1.12-2.11-1.42-.72-.29-1.5-.44-2.32-.44-1.01 0-1.93.226-2.73.67-.81.447-1.45 1.076-1.92 1.87-.47.796-.7 1.66-.7 2.585 0 1.23.4 2.34 1.21 3.29 1.05 1.22 2.49 1.84 4.27 1.84 1.47 0 2.67-.45 3.57-1.34.89-.89 1.34-2.1 1.35-3.6v-.28h-4.54v1.45m43.62-2.185c-.67-.497-1.06-.8-1.16-.9-.2-.192-.34-.372-.41-.53-.06-.152-.1-.305-.1-.473 0-.26.09-.46.27-.637.33-.32.93-.36 1.38-.08.15.09.41.31.81.84l.17.23 1.19-.906-.16-.22c-.45-.613-.87-1.03-1.29-1.27-.81-.46-1.83-.47-2.63-.033-.4.218-.71.517-.92.88-.22.38-.33.797-.33 1.246 0 .566.18 1.1.54 1.58.2.285.7.716 1.49 1.32.74.56 1.25 1.04 1.52 1.42.18.257.262.504.262.75 0 .224-.06.435-.18.636-.116.2-.29.36-.51.48-.24.12-.48.18-.747.18-.616 0-1.18-.465-1.68-1.38l-.137-.255-1.26.76.13.23c.41.75.863 1.29 1.36 1.61.5.33 1.06.49 1.67.49.8 0 1.49-.28 2.05-.82.57-.54.85-1.2.85-1.94 0-.52-.167-1.03-.49-1.54-.317-.49-.87-1.03-1.717-1.65m-18.34.82c0 .69-.16 1.32-.473 1.87-.32.57-.763 1.01-1.323 1.33-.57.32-1.192.49-1.852.49-1.01 0-1.846-.34-2.56-1.05-.72-.71-1.07-1.55-1.07-2.58 0-.69.16-1.32.48-1.88.32-.57.76-1 1.33-1.33.566-.33 1.17-.5 1.807-.5.65 0 1.27.17 1.84.5.57.33 1.02.77 1.35 1.32.32.55.48 1.18.48 1.86zm-3.7-5.12c-.91 0-1.77.23-2.544.68-.79.45-1.41 1.08-1.86 1.88-.45.8-.68 1.67-.68 2.61 0 1.4.5 2.61 1.49 3.6.99.99 2.222 1.49 3.66 1.49 1.42 0 2.65-.5 3.64-1.49.99-.99 1.49-2.22 1.49-3.64 0-1.43-.51-2.66-1.5-3.64s-2.24-1.48-3.71-1.48zm9.807 4.29l-1.32-.01v-2.59h1.36c.74 0 1.09.07 1.26.14.22.09.4.23.534.44.14.2.21.44.21.69 0 .27-.06.5-.2.72-.13.21-.32.35-.56.45-.26.11-.68.16-1.26.16zm2.01 1.12c.49-.22.87-.54 1.136-.97.27-.43.4-.92.4-1.47 0-.66-.19-1.23-.58-1.7-.38-.46-.887-.76-1.48-.9-.39-.09-1.098-.13-2.16-.13h-2.12v9.8h1.48v-4.3h.108l3.245 4.19.08.11h1.84l-3.34-4.31c.56-.04 1.02-.14 1.38-.3z"/>
  </g>
</svg>
