<svg xmlns="http://www.w3.org/2000/svg" viewBox="0 0 76 76">
  <g fill="#FF6C00">
    <path d="M38.086 73.73c6.256-3.324 8.302-10.945 4.566-17.023-1.743-2.842-4.45-4.842-7.468-5.825 4.97-.332 10.035 2.058 12.77 6.498 3.732 6.08 1.685 13.692-4.572 17.015-3.33 1.768-7.188 1.963-10.63.838 1.826-.12 3.645-.614 5.334-1.503"/>
    <path d="M51.763 70.96c4.51-5.46 3.486-13.28-2.293-17.473-2.7-1.957-5.968-2.77-9.127-2.524 4.46-2.21 10.056-1.94 14.28 1.12 5.775 4.187 6.797 12.007 2.286 17.47-2.41 2.91-5.89 4.563-9.51 4.842 1.65-.813 3.14-1.965 4.35-3.436"/>
    <path d="M63.338 63.17c2.08-6.773-1.86-13.605-8.804-15.26-3.242-.775-6.568-.28-9.404 1.157 3.28-3.752 8.55-5.638 13.62-4.43 6.943 1.657 10.887 8.484 8.807 15.262-1.11 3.61-3.697 6.46-6.93 8.1 1.208-1.38 2.147-3.01 2.71-4.84"/>
    <path d="M71.054 51.547c-.675-7.056-6.932-11.863-13.98-10.734-3.285.53-6.17 2.255-8.237 4.668 1.59-4.71 5.736-8.48 10.887-9.3 7.047-1.12 13.3 3.68 13.97 10.74.36 3.75-.93 7.39-3.287 10.14.583-1.74.823-3.61.647-5.5"/>
    <path d="M73.73 37.854c-3.322-6.26-10.94-8.31-17.02-4.568-2.84 1.74-4.843 4.447-5.83 7.464-.334-4.966 2.058-10.033 6.502-12.767 6.08-3.733 13.696-1.686 17.014 4.576 1.77 3.33 1.958 7.18.833 10.62-.11-1.84-.61-3.66-1.5-5.34"/>
    <path d="M70.96 24.174c-5.46-4.512-13.28-3.486-17.467 2.29-1.96 2.702-2.78 5.968-2.53 9.136-2.203-4.47-1.937-10.06 1.126-14.283 4.18-5.776 12-6.8 17.46-2.29 2.91 2.405 4.57 5.89 4.84 9.5-.81-1.642-1.96-3.136-3.43-4.353"/>
    <path d="M63.17 12.6c-6.77-2.08-13.6 1.86-15.26 8.8-.772 3.247-.277 6.567 1.158 9.41-3.748-3.28-5.638-8.554-4.427-13.626C46.3 10.246 53.13 6.307 59.9 8.38c3.61 1.11 6.478 3.7 8.11 6.93-1.38-1.21-3.01-2.15-4.84-2.71"/>
    <path d="M51.547 4.89c-7.058.665-11.858 6.92-10.733 13.966.524 3.297 2.258 6.18 4.675 8.248-4.73-1.592-8.49-5.74-9.31-10.89-1.13-7.046 3.68-13.3 10.73-13.973 3.75-.36 7.38.94 10.13 3.3-1.73-.58-3.6-.83-5.5-.64"/>
    <path d="M37.85 2.21c-6.26 3.317-8.3 10.933-4.566 17.013 1.75 2.84 4.448 4.845 7.464 5.832-4.97.33-10.03-2.057-12.76-6.502-3.735-6.078-1.69-13.692 4.568-17.018C35.89-.23 39.748-.422 43.186.697c-1.825.127-3.65.623-5.335 1.512"/>
    <path d="M24.178 4.977c-4.516 5.46-3.487 13.283 2.29 17.463 2.702 1.96 5.964 2.78 9.135 2.527-4.468 2.215-10.064 1.944-14.276-1.12-5.783-4.182-6.814-12.003-2.3-17.462 2.405-2.908 5.895-4.564 9.5-4.85-1.643.817-3.135 1.968-4.35 3.442"/>
    <path d="M12.6 12.76c-2.08 6.78 1.86 13.61 8.8 15.264 3.25.777 6.574.28 9.412-1.16-3.28 3.753-8.553 5.648-13.625 4.43-6.94-1.655-10.878-8.485-8.803-15.26 1.105-3.604 3.7-6.467 6.927-8.11-1.21 1.385-2.15 3.02-2.71 4.836"/>
    <path d="M4.883 24.393c.675 7.05 6.93 11.858 13.977 10.73 3.29-.527 6.178-2.255 8.243-4.67-1.592 4.72-5.74 8.483-10.89 9.31-7.04 1.126-13.298-3.686-13.97-10.735-.36-3.758.94-7.39 3.293-10.145-.59 1.743-.83 3.606-.653 5.51"/>
    <path d="M2.213 38.082c3.312 6.26 10.934 8.304 17.01 4.574 2.845-1.752 4.845-4.457 5.83-7.474.332 4.97-2.05 10.034-6.497 12.77-6.077 3.733-13.693 1.684-17.018-4.574-1.773-3.333-1.96-7.185-.834-10.628.12 1.826.608 3.65 1.51 5.332"/>
    <path d="M4.974 51.76c5.466 4.514 13.286 3.485 17.47-2.29 1.962-2.698 2.77-5.967 2.532-9.137 2.202 4.474 1.938 10.06-1.124 14.285-4.187 5.776-12.002 6.8-17.47 2.287-2.906-2.4-4.562-5.888-4.84-9.494.81 1.65 1.963 3.14 3.432 4.35"/>
    <path d="M12.763 63.334c6.776 2.082 13.607-1.86 15.263-8.795.775-3.26.28-6.58-1.16-9.42 3.75 3.28 5.646 8.55 4.433 13.62-1.66 6.94-8.5 10.89-15.27 8.81-3.61-1.12-6.48-3.7-8.12-6.93 1.38 1.21 3.02 2.14 4.84 2.7"/>
    <path d="M24.393 71.05c7.052-.672 11.858-6.93 10.732-13.97-.528-3.296-2.257-6.182-4.67-8.25 4.718 1.603 8.482 5.745 9.307 10.89 1.125 7.052-3.684 13.308-10.73 13.975-3.76.356-7.394-.938-10.145-3.294 1.74.59 3.612.83 5.506.65"/>
  </g>
</svg>
