<svg xmlns="http://www.w3.org/2000/svg" viewBox="0 0 476 76">
  <g fill="none">
    <path fill="#FF6C00" d="M38.086 73.732c6.256-3.324 8.302-10.945 4.566-17.023-1.743-2.85-4.45-4.85-7.468-5.83 4.97-.33 10.035 2.05 12.77 6.5 3.732 6.08 1.686 13.69-4.57 17.01-3.333 1.77-7.19 1.96-10.632.84 1.826-.12 3.645-.62 5.334-1.51"/>
    <path fill="#FF6C00" d="M51.763 70.96c4.51-5.46 3.486-13.28-2.293-17.47-2.7-1.958-5.968-2.77-9.127-2.526 4.46-2.21 10.056-1.94 14.28 1.12C60.4 56.27 61.42 64.09 56.91 69.554c-2.405 2.91-5.886 4.564-9.504 4.842 1.65-.813 3.14-1.965 4.356-3.436"/>
    <path fill="#FF6C00" d="M63.338 63.17c2.08-6.772-1.86-13.604-8.804-15.26-3.242-.774-6.568-.278-9.405 1.16 3.27-3.753 8.55-5.64 13.62-4.433 6.94 1.658 10.88 8.486 8.8 15.264-1.11 3.62-3.7 6.47-6.93 8.11 1.21-1.38 2.14-3.01 2.71-4.83"/>
    <path fill="#FF6C00" d="M71.054 51.548c-.675-7.055-6.932-11.863-13.98-10.734-3.285.53-6.17 2.256-8.237 4.668 1.59-4.717 5.736-8.486 10.888-9.306 7.046-1.123 13.298 3.682 13.97 10.738.36 3.752-.93 7.39-3.288 10.14.583-1.746.824-3.61.647-5.506"/>
    <path fill="#FF6C00" d="M73.73 37.855c-3.322-6.26-10.94-8.31-17.02-4.568-2.84 1.74-4.843 4.447-5.83 7.464-.334-4.96 2.058-10.03 6.5-12.76 6.083-3.73 13.698-1.68 17.016 4.58 1.77 3.34 1.958 7.19.832 10.63-.11-1.83-.606-3.65-1.5-5.33"/>
    <path fill="#FF6C00" d="M70.96 24.176c-5.462-4.513-13.28-3.486-17.467 2.29-1.96 2.702-2.78 5.968-2.53 9.136-2.204-4.47-1.938-10.06 1.125-14.283 4.18-5.78 12.004-6.8 17.463-2.29 2.92 2.4 4.57 5.89 4.84 9.49-.8-1.64-1.95-3.14-3.43-4.35"/>
    <path fill="#FF6C00" d="M63.17 12.6c-6.77-2.08-13.6 1.862-15.26 8.803-.772 3.246-.277 6.566 1.16 9.408-3.75-3.27-5.64-8.55-4.428-13.62 1.65-6.94 8.48-10.87 15.26-8.8 3.607 1.11 6.47 3.7 8.11 6.93-1.385-1.2-3.015-2.15-4.84-2.7"/>
    <path fill="#FF6C00" d="M51.547 4.89c-7.058.666-11.86 6.922-10.734 13.967.524 3.298 2.258 6.183 4.675 8.25-4.724-1.593-8.49-5.74-9.31-10.893C35.05 9.17 39.86 2.914 46.918 2.24c3.75-.358 7.385.94 10.13 3.296-1.73-.588-3.603-.83-5.5-.646"/>
    <path fill="#FF6C00" d="M37.85 2.21c-6.26 3.318-8.3 10.934-4.566 17.014 1.75 2.843 4.448 4.847 7.465 5.833-4.97.33-10.03-2.057-12.76-6.503-3.74-6.078-1.7-13.69 4.56-17.018C35.89-.23 39.75-.422 43.18.698c-1.82.127-3.65.623-5.33 1.512"/>
    <path fill="#FF6C00" d="M24.178 4.978c-4.516 5.46-3.487 13.283 2.29 17.464 2.703 1.96 5.965 2.78 9.135 2.527-4.468 2.21-10.063 1.94-14.276-1.12-5.783-4.19-6.814-12.01-2.3-17.47 2.405-2.91 5.895-4.57 9.5-4.85-1.643.81-3.135 1.97-4.35 3.44"/>
    <path fill="#FF6C00" d="M12.6 12.76c-2.08 6.78 1.86 13.614 8.8 15.267 3.25.777 6.574.28 9.413-1.158-3.28 3.75-8.553 5.64-13.624 4.43-6.95-1.66-10.88-8.49-8.81-15.26 1.1-3.61 3.7-6.47 6.92-8.12-1.21 1.38-2.15 3.02-2.71 4.83"/>
    <path fill="#FF6C00" d="M4.883 24.395c.675 7.05 6.93 11.857 13.978 10.73 3.29-.527 6.18-2.256 8.25-4.672-1.59 4.72-5.74 8.484-10.89 9.31C9.18 40.89 2.92 36.08 2.24 29.03c-.358-3.76.94-7.39 3.294-10.147-.59 1.746-.83 3.607-.653 5.512"/>
    <path fill="#FF6C00" d="M2.213 38.084c3.312 6.26 10.934 8.304 17.01 4.574 2.845-1.752 4.845-4.457 5.83-7.474.332 4.97-2.05 10.035-6.497 12.77-6.078 3.733-13.693 1.685-17.018-4.573-1.773-3.33-1.96-7.18-.834-10.62.12 1.83.608 3.65 1.51 5.33"/>
    <path fill="#FF6C00" d="M4.974 51.76c5.466 4.515 13.286 3.487 17.47-2.288 1.96-2.7 2.77-5.967 2.53-9.137 2.203 4.473 1.94 10.06-1.123 14.285-4.18 5.775-12 6.8-17.46 2.287-2.91-2.4-4.56-5.89-4.84-9.494.82 1.64 1.97 3.133 3.44 4.348"/>
    <path fill="#FF6C00" d="M12.763 63.335c6.776 2.082 13.607-1.86 15.263-8.795.775-3.252.28-6.574-1.16-9.412 3.75 3.28 5.646 8.555 4.433 13.62-1.66 6.944-8.5 10.888-15.27 8.808-3.61-1.113-6.48-3.695-8.12-6.926 1.38 1.21 3.02 2.145 4.84 2.705"/>
    <path fill="#FF6C00" d="M24.393 71.05c7.052-.67 11.858-6.928 10.73-13.97-.526-3.294-2.255-6.18-4.67-8.25 4.72 1.605 8.483 5.747 9.31 10.892 1.124 7.05-3.685 13.307-10.732 13.975-3.76.355-7.39-.94-10.14-3.295 1.74.588 3.62.83 5.51.648"/>
    <path fill="#FF6B00" d="M319.158 71.51h1.48v-4.54h3.706v-1.46h-3.707v-2.344h3.707v-1.458h-5.186m21.93 6.624l-5.666-6.53-.084-.094h-.602v9.8h1.505v-6.54l5.63 6.446.08.095h.61V61.7h-1.46m-67.63 7.18c-.82.96-1.82 1.427-3.04 1.427-1.09 0-2.01-.354-2.73-1.055-.71-.693-1.07-1.576-1.07-2.623 0-.7.16-1.33.48-1.88.32-.56.77-1 1.36-1.33.58-.33 1.22-.49 1.91-.49.64 0 1.21.12 1.74.38.52.24.97.61 1.35 1.1l.17.21 1.16-.89-.15-.22c-.47-.65-1.08-1.16-1.81-1.52-.73-.36-1.56-.54-2.46-.54-1.5 0-2.77.49-3.76 1.46-1 .97-1.51 2.19-1.51 3.61 0 1.35.42 2.52 1.24 3.47.99 1.13 2.34 1.71 4.04 1.71.88 0 1.7-.17 2.43-.51.73-.35 1.35-.83 1.83-1.45l.17-.22-1.15-.89-.17.2zm57.62-1.32c0 .88-.04 1.23-.08 1.374-.07.29-.19.536-.35.73-.16.2-.36.356-.6.47-.52.24-1.12.22-1.69-.055-.3-.15-.52-.32-.66-.53-.14-.21-.23-.47-.27-.8-.01-.11-.03-.4-.03-1.2V61.7h-1.48v5.86c0 .98.06 1.644.18 2.03.2.644.6 1.17 1.18 1.56.58.385 1.28.58 2.07.58.74 0 1.39-.206 1.93-.622.53-.41.89-.905 1.07-1.468.17-.535.26-1.217.26-2.082V61.7h-1.48v5.86zm-26.74.22l-2.39-6.08h-.57l-2.42 6.08-1.72-6.08h-1.52l2.78 9.802h.58l2.61-6.52 2.56 6.52h.57l2.82-9.803h-1.52m-16.72-.23c-.91 0-1.77.23-2.54.68-.78.45-1.41 1.08-1.86 1.88-.45.8-.68 1.68-.68 2.61 0 1.4.51 2.61 1.5 3.6.99.98 2.23 1.49 3.67 1.49 1.43 0 2.65-.51 3.64-1.5.99-1 1.5-2.23 1.5-3.65 0-1.44-.5-2.66-1.5-3.64-.99-.99-2.24-1.48-3.71-1.48zm3.7 5.12c0 .69-.16 1.33-.47 1.88-.31.56-.76 1-1.32 1.32-.57.32-1.19.48-1.85.48-1 0-1.84-.35-2.56-1.06-.71-.71-1.06-1.56-1.06-2.59 0-.69.16-1.32.48-1.89.32-.56.77-1.01 1.34-1.34.56-.33 1.17-.5 1.81-.5.65 0 1.26.16 1.84.5.57.33 1.02.77 1.34 1.32.31.55.47 1.17.47 1.85zm21.37-4.54c-.66-.24-1.7-.35-3.1-.35h-2.19v9.8h3.22c1.19 0 2.14-.18 2.82-.54.69-.37 1.25-.93 1.67-1.67.42-.74.64-1.61.64-2.58 0-1.12-.27-2.11-.8-2.93-.53-.82-1.29-1.41-2.24-1.75zm-3.86 1.11h.38c1.29 0 2.23.08 2.78.25.71.2 1.26.6 1.66 1.19.4.58.6 1.3.6 2.13 0 .79-.19 1.46-.55 2-.36.54-.85.9-1.5 1.11-.47.15-1.33.23-2.57.23h-.79v-6.91zm39.43-1.11c-.65-.24-1.7-.35-3.1-.35h-2.2v9.8h3.22c1.19 0 2.13-.18 2.81-.54.69-.36 1.25-.92 1.67-1.67.43-.74.64-1.61.64-2.58 0-1.13-.27-2.11-.8-2.93-.53-.82-1.28-1.41-2.24-1.75zm-3.85 1.11h.38c1.29 0 2.23.08 2.78.25.7.2 1.26.6 1.65 1.19.4.58.61 1.3.61 2.13 0 .79-.18 1.46-.55 2-.36.54-.85.9-1.49 1.11-.47.15-1.34.23-2.57.23h-.79v-6.91zm-64.87 3.72c.49-.22.87-.55 1.14-.98.27-.43.4-.92.4-1.48 0-.67-.19-1.24-.58-1.71-.39-.46-.89-.77-1.49-.9-.39-.09-1.09-.14-2.15-.14h-2.12v9.8H278V67.2h.11l3.24 4.186.08.11h1.84l-3.34-4.316c.56-.04 1.02-.14 1.39-.305zm-2-1.13l-1.32-.02v-2.59h1.35c.74 0 1.09.08 1.26.14.22.08.4.23.53.44.14.2.21.44.21.69 0 .26-.07.5-.2.72-.13.2-.31.35-.56.45-.25.1-.68.16-1.26.16zm75.32-4.06h1.48v9.8h-1.48zm74.57 7.18c-.82.95-1.82 1.42-3.04 1.42-1.09 0-2.01-.36-2.73-1.06-.71-.7-1.07-1.58-1.07-2.62 0-.7.16-1.33.48-1.88.32-.55.78-1 1.36-1.33 1.13-.63 2.57-.64 3.65-.11.53.25.97.61 1.35 1.11l.17.21 1.16-.89-.15-.22c-.47-.65-1.07-1.16-1.81-1.52-.73-.36-1.56-.54-2.46-.54-1.5 0-2.77.49-3.76 1.46-1 .97-1.51 2.19-1.51 3.61 0 1.35.42 2.52 1.25 3.48.98 1.13 2.34 1.71 4.03 1.71.88 0 1.7-.17 2.43-.51.72-.35 1.34-.83 1.82-1.45l.18-.22-1.163-.88-.17.2zm28.53-7.41c-.91 0-1.77.23-2.54.68-.78.45-1.41 1.08-1.86 1.88-.45.8-.68 1.67-.68 2.61 0 1.4.51 2.61 1.5 3.6 1 .98 2.23 1.49 3.67 1.49 1.43 0 2.65-.51 3.64-1.5.99-1 1.5-2.22 1.5-3.65 0-1.43-.5-2.66-1.5-3.64-.99-.99-2.24-1.49-3.71-1.49zm3.7 5.12c0 .69-.16 1.33-.47 1.88-.31.56-.76 1.01-1.32 1.33-.57.32-1.19.48-1.85.48-1 0-1.84-.35-2.56-1.06-.71-.71-1.06-1.56-1.06-2.59 0-.7.16-1.33.48-1.89.33-.57.77-1.01 1.34-1.34.58-.34 1.17-.5 1.81-.5.65 0 1.27.17 1.84.5.58.33 1.03.77 1.35 1.32.32.55.48 1.17.48 1.85zm-23.64-1.01h-4.16V61.7h-1.47v9.8h1.48v-4.46h4.16v4.465h1.48v-9.802h-1.47m8.3-.228c-.91 0-1.77.23-2.54.682-.77.447-1.4 1.082-1.86 1.88-.45.804-.68 1.683-.68 2.612 0 1.39.51 2.61 1.5 3.6.99.98 2.23 1.49 3.67 1.49 1.42 0 2.65-.51 3.64-1.5.99-1 1.49-2.22 1.49-3.65 0-1.44-.5-2.66-1.49-3.65-1-.99-2.245-1.48-3.71-1.48zm3.7 5.12c0 .69-.16 1.32-.47 1.88-.32.56-.76 1.004-1.32 1.324-.57.32-1.2.48-1.86.48-.99 0-1.85-.36-2.56-1.06-.71-.71-1.06-1.56-1.06-2.58 0-.69.16-1.33.48-1.89.32-.56.77-1.01 1.34-1.34.56-.33 1.17-.5 1.8-.5.66 0 1.26.16 1.84.5.58.32 1.02.77 1.34 1.32.32.55.48 1.17.48 1.85zM364.5 68.33l-5.67-6.53-.08-.095h-.6v9.8h1.51v-6.54l5.62 6.446.083.1h.61v-9.8h-1.47m101.68 0h-1.48v9.8h5.04v-1.45h-3.56m9.44-2.62c-.31-.49-.87-1.03-1.71-1.65-.67-.49-1.06-.79-1.16-.89-.2-.19-.333-.37-.404-.53-.07-.15-.1-.3-.1-.47 0-.25.09-.46.27-.63.32-.31.92-.36 1.38-.08.14.09.41.31.81.85l.16.22 1.19-.9-.17-.22c-.45-.62-.87-1.03-1.29-1.27-.8-.46-1.82-.47-2.63-.03-.39.22-.7.51-.92.88-.22.38-.33.8-.33 1.24 0 .57.18 1.1.54 1.58.21.29.69.72 1.5 1.32.74.56 1.25 1.04 1.52 1.42.17.26.26.5.26.75 0 .23-.06.44-.18.64s-.29.36-.51.48c-.24.13-.49.19-.75.19-.62 0-1.17-.46-1.68-1.39l-.14-.25-1.27.76.13.23c.41.75.86 1.29 1.35 1.61.5.33 1.062.5 1.673.5.8 0 1.49-.28 2.05-.82.56-.55.85-1.2.85-1.95 0-.51-.167-1.03-.49-1.53zm-91.81 4.08h1.48v-4.54H389v-1.46h-3.707v-2.35H389v-1.46h-5.19m-10.21 6.27h2.89c-.15.64-.483 1.17-1.01 1.59-.61.5-1.344.75-2.24.75-.724 0-1.41-.17-2.025-.5-.61-.33-1.095-.79-1.44-1.37-.344-.58-.52-1.2-.52-1.84 0-.62.17-1.22.5-1.79.335-.56.81-1.02 1.42-1.34 1.11-.6 2.32-.68 3.62-.13.58.25 1.125.62 1.61 1.1l.196.19 1.12-1.06-.21-.2c-.67-.64-1.38-1.12-2.11-1.42-.72-.29-1.5-.44-2.31-.44-1.01 0-1.93.23-2.73.67-.81.45-1.45 1.08-1.91 1.87-.47.8-.7 1.66-.7 2.59 0 1.24.41 2.34 1.22 3.29 1.05 1.22 2.49 1.85 4.27 1.85 1.48 0 2.68-.45 3.57-1.34.89-.89 1.35-2.1 1.36-3.6l.01-.28h-4.54V68h-.006zm43.62-2.18c-.67-.49-1.06-.79-1.16-.89-.196-.19-.333-.37-.4-.53-.064-.15-.1-.3-.1-.47 0-.25.09-.46.27-.63.33-.32.925-.36 1.38-.08.15.09.41.31.814.84l.168.23 1.19-.9-.165-.22c-.45-.62-.876-1.03-1.29-1.27-.81-.46-1.83-.47-2.636-.04-.4.22-.71.52-.92.88-.22.38-.33.8-.33 1.24 0 .57.18 1.1.54 1.58.21.29.7.72 1.5 1.32.75.56 1.26 1.04 1.53 1.42.18.26.27.51.27.75 0 .23-.06.44-.18.64-.11.2-.28.36-.51.48-.24.13-.48.19-.74.19-.61 0-1.17-.46-1.67-1.38l-.13-.25-1.26.76.13.23c.41.74.86 1.28 1.36 1.6.5.33 1.07.49 1.68.49.8 0 1.49-.27 2.05-.82.57-.54.85-1.2.85-1.94 0-.52-.16-1.03-.49-1.54-.31-.49-.87-1.03-1.71-1.65zm-22.04-4.3c-.91 0-1.77.23-2.546.68-.78.45-1.41 1.09-1.86 1.88-.45.8-.68 1.68-.68 2.61 0 1.4.505 2.61 1.497 3.6 1 .99 2.23 1.49 3.67 1.49 1.43 0 2.65-.5 3.64-1.49.99-1 1.5-2.22 1.5-3.64 0-1.43-.5-2.66-1.5-3.64-.99-.98-2.24-1.48-3.71-1.48zm3.7 5.12c0 .69-.16 1.32-.475 1.88-.32.56-.764 1.01-1.323 1.33-.57.32-1.2.49-1.86.49-1.003 0-1.84-.34-2.56-1.06-.71-.71-1.06-1.55-1.06-2.59 0-.69.16-1.32.48-1.88.325-.57.76-1.01 1.333-1.34.566-.33 1.175-.5 1.81-.5.646 0 1.266.17 1.84.5.57.33 1.02.77 1.344 1.32.31.55.47 1.18.47 1.85zm8.11.3c.49-.22.87-.55 1.14-.98.265-.43.4-.92.4-1.47 0-.67-.196-1.24-.583-1.7-.384-.46-.89-.76-1.482-.89-.39-.09-1.09-.13-2.15-.13h-2.12v9.8h1.48v-4.3h.11L407 71.4l.084.11h1.848l-3.34-4.316c.56-.04 1.02-.14 1.39-.3zm-2.004-1.13l-1.32-.01v-2.59H405c.74 0 1.094.08 1.26.14.22.09.398.23.53.44.14.2.208.44.208.69 0 .27-.067.5-.206.72-.13.21-.313.35-.56.45-.256.11-.682.16-1.262.16z"/>
    <path fill="#FFF" d="M475.788 53.35V38.21c0-2.59-.686-4.82-2.596-6.727-1.315-1.32-3.453-2.094-5.817-2.094-2.956 0-5.093.91-7.095 3-1.5-2.05-3.635-3-6.273-3-2.18 0-4.362.86-5.91 2.45v-2.18h-5.774v23.69h5.912V39.03c0-3.23 2.09-4.32 3.955-4.32 1.862 0 3.91 1.09 3.91 4.32v14.32h5.91V38.893c0-3.092 2.137-4.182 3.957-4.182 1.862 0 3.91 1.09 3.91 4.32v14.32h5.91zm-42.54-11.864c0 2.455-.137 4.543-1.364 5.773-.683.68-1.59 1.04-2.774 1.04-1.18 0-2.045-.37-2.728-1.05-1.228-1.23-1.363-3.32-1.363-5.78s.13-4.5 1.36-5.73c.68-.68 1.54-1.05 2.73-1.05 1.18 0 2.09.36 2.77 1.04 1.22 1.23 1.36 3.27 1.36 5.73zm5.91 0c0-4.276-.547-6.958-2.682-9.186-1.457-1.545-3.866-2.91-7.367-2.91-3.51 0-5.87 1.365-7.33 2.91-2.14 2.23-2.68 4.91-2.68 9.186 0 4.316.54 7.002 2.68 9.227 1.45 1.55 3.82 2.912 7.32 2.912 3.5 0 5.91-1.363 7.36-2.912 2.13-2.225 2.68-4.91 2.68-9.227zm-20.863 8.912l-4.002-3.957c-1.228 1.32-2.273 1.87-3.818 1.87-1.41 0-2.5-.5-3.365-1.54-.91-1.14-1.318-2.77-1.318-5.27s.407-4.09 1.318-5.23c.864-1.04 1.954-1.54 3.365-1.54 1.545 0 2.59.55 3.818 1.87l4.002-4c-2.09-2.19-4.547-3.19-7.82-3.19-4.73 0-10.594 2.5-10.594 12.1 0 9.59 5.87 12.14 10.6 12.14 3.28 0 5.73-1.04 7.82-3.22zm-20.816-3.775h-6.78v6.73h6.77v-6.73zm-9.82 6.728v-5h-2.28c-1.5 0-2.09-.72-2.09-2.13V20.98h-5.91v25.596c0 3.365 2.04 6.775 6.91 6.775h3.36zm-19.11-11.86c0 2.46-.14 4.55-1.37 5.78-.69.68-1.59 1.05-2.78 1.05-1.18 0-2.05-.36-2.73-1.04-1.23-1.23-1.37-3.32-1.37-5.77 0-2.46.13-4.5 1.36-5.73.68-.68 1.54-1.05 2.72-1.05 1.18 0 2.09.37 2.77 1.05 1.22 1.23 1.36 3.28 1.36 5.73zm5.91 0c0-4.27-.55-6.95-2.68-9.18-1.46-1.54-3.87-2.91-7.37-2.91s-5.86 1.37-7.32 2.91c-2.14 2.23-2.68 4.91-2.68 9.19 0 4.32.54 7 2.68 9.23 1.45 1.55 3.82 2.91 7.32 2.91 3.5 0 5.91-1.36 7.37-2.91 2.13-2.22 2.68-4.91 2.68-9.23zm-28.2 0c0 2.46-.14 4.55-1.37 5.78-.68.68-1.6 1.05-2.78 1.05s-2.05-.36-2.73-1.04c-1.23-1.23-1.37-3.32-1.37-5.77 0-2.46.13-4.5 1.36-5.73.68-.68 1.55-1.05 2.73-1.05s2.09.37 2.77 1.05c1.23 1.23 1.36 3.28 1.36 5.73zm5.91 0c0-4.27-.55-6.95-2.68-9.18-1.46-1.54-3.87-2.91-7.37-2.91s-5.87 1.37-7.32 2.91c-2.14 2.23-2.68 4.91-2.68 9.19 0 4.32.54 7 2.68 9.23 1.45 1.55 3.82 2.91 7.32 2.91 3.5 0 5.91-1.36 7.36-2.91 2.14-2.22 2.68-4.91 2.68-9.23zm-22.95 11.87V38.03c0-5.004-2.73-8.64-7.92-8.64-2.09 0-4.09.817-5.68 2.456V20.98h-5.91v32.37h5.91V38.89c0-3.092 1.95-4.182 3.82-4.182 1.86 0 3.86 1.046 3.86 4.182v14.46h5.91zm-21.71-2.96l-4-3.95c-1.23 1.32-2.28 1.87-3.83 1.87-1.41 0-2.5-.5-3.37-1.54-.91-1.14-1.32-2.77-1.32-5.27s.41-4.09 1.31-5.23c.87-1.04 1.96-1.54 3.36-1.54 1.54 0 2.59.55 3.82 1.87l4-4c-2.09-2.18-4.54-3.18-7.82-3.18-4.73 0-10.59 2.5-10.59 12.1 0 9.59 5.87 12.14 10.6 12.14 3.27 0 5.73-1.04 7.82-3.22zm-20.11-4.5c0-4-2.37-6.5-7.05-6.96l-3.73-.36c-2.09-.18-2.46-1.18-2.46-2.05 0-1.18 1-2.27 3.36-2.27 2.05 0 4.14.36 5.5 1.59l3.64-3.68c-2.27-2.14-5.37-2.77-9.05-2.77-4.82 0-9.14 2.64-9.14 7.55 0 4.37 2.63 6.23 6.91 6.64l3.72.36c1.86.19 2.5 1 2.5 2.18 0 1.78-2.14 2.46-4.19 2.46-1.82 0-4.37-.27-6.32-2.23l-3.87 3.87c3 3 6.36 3.41 10.09 3.41 5.59 0 10.05-2.5 10.05-7.72zm-18.91-16.23h-6.23l-4.73 14.63-4.92-14.63h-6.23l8.09 22.01-1 2.91c-.6 1.72-1.28 2.13-2.96 2.13h-1.36v5.32h2.32c1.96 0 3.73-.46 5.1-1.82.73-.73 1.27-1.73 1.77-3.05l10.16-27.52zm-22.45 23.68V38.21c0-2.59-.69-4.82-2.6-6.727-1.32-1.32-3.46-2.094-5.82-2.094-2.96 0-5.09.91-7.1 3-1.5-2.05-3.64-3-6.28-3-2.19 0-4.37.86-5.92 2.45v-2.18h-5.77v23.69h5.91V39.03c0-3.23 2.09-4.32 3.95-4.32s3.91 1.09 3.91 4.32v14.32h5.91V38.893c0-3.092 2.14-4.182 3.95-4.182 1.86 0 3.9 1.09 3.9 4.32v14.32H246zM203.81 39.3h-9.002c.046-1.043.18-1.682.545-2.543.638-1.41 1.956-2.457 3.957-2.457 2 0 3.32 1.048 3.955 2.457.36.86.5 1.5.54 2.543zm5.82 4.047v-2.635c0-6.504-3.73-11.323-10.32-11.323-6.138 0-10.32 4.36-10.32 12.09 0 9.59 5.363 12.14 10.958 12.14 4.273 0 6.595-1.32 9-3.73l-3.59-3.5c-1.5 1.5-2.774 2.22-5.364 2.22-3.32 0-5.184-2.23-5.184-5.28h14.822zM187.49 53.35v-5h-2.136c-1.41 0-2.05-.772-2.05-2.138V34.847h4.18v-4.502h-4.19v-7.002h-5.91v7.002h-2.5v4.502h2.5v11.73c0 3.364 2.04 6.774 6.86 6.774h3.23zm-20.53-8.73c0 1.458-.23 2.41-.865 3.003-1.048 1-2.096 1.137-3.73 1.137-2.32 0-3.41-1.092-3.41-2.73 0-1.68 1.18-2.682 3.32-2.682h4.682v1.273zm5.91 8.73V37.758c0-5.547-3.46-8.367-10.094-8.367-3.95 0-6.23.73-8.55 3.28l3.78 3.69c1.23-1.41 2.28-1.95 4.55-1.95 3.14 0 4.41 1.14 4.41 3.73v1.18h-5.59c-5.5 0-8.09 3.1-8.09 6.87 0 2.09.68 4 1.953 5.32 1.41 1.41 3.36 2.09 6.05 2.09 2.73 0 4.23-.68 5.82-2.27v2.05h5.77zm-21.853 0V38.21c0-2.59-.498-4.82-2.41-6.727-1.317-1.32-3.228-2.094-5.59-2.094-2.185 0-4.367.81-5.91 2.45v-2.18h-5.778v23.69h5.91V39.03c0-3.23 2.09-4.32 3.95-4.32 1.87 0 3.91 1.09 3.91 4.32v14.32h5.91zm-28.76-11.863c0 2.455-.136 4.543-1.365 5.773-.68.68-1.59 1.044-2.77 1.044-1.185 0-2.05-.363-2.73-1.045-1.23-1.23-1.363-3.32-1.363-5.78s.13-4.5 1.36-5.73c.68-.68 1.54-1.05 2.73-1.05 1.18 0 2.09.36 2.77 1.04 1.23 1.22 1.36 3.27 1.36 5.73zm5.91 0c0-4.276-.546-6.958-2.683-9.186-1.455-1.54-3.862-2.91-7.363-2.91-3.5 0-5.86 1.37-7.32 2.91-2.14 2.23-2.68 4.91-2.68 9.19 0 4.32.55 7 2.69 9.23 1.46 1.55 3.82 2.91 7.32 2.91 3.51 0 5.91-1.36 7.37-2.91 2.14-2.22 2.68-4.91 2.68-9.22zm-29.124 0c0 3.863-.5 6.818-4.045 6.818-3.55 0-4.004-2.955-4.004-6.818 0-3.868.456-6.776 4.005-6.776 3.54 0 4.04 2.91 4.04 6.78zm5.91 11.865V20.98h-5.91v10.776c-1.547-1.73-3.364-2.366-5.773-2.366-2.32 0-4.456.818-5.777 2.137-2.36 2.365-2.407 6.412-2.407 9.96 0 3.544.045 7.636 2.406 10.003 1.32 1.314 3.5 2.135 5.82 2.135 2.502 0 4.23-.684 5.867-2.5v2.227h5.77z"/>
  </g>
</svg>
